<?xml version="1.0" standalone="no"?>
<!DOCTYPE svg PUBLIC "-//W3C//DTD SVG 20010904//EN"
 "http://www.w3.org/TR/2001/REC-SVG-20010904/DTD/svg10.dtd">
<svg version="1.0" xmlns="http://www.w3.org/2000/svg"
 width="1318.000000pt" height="858.000000pt" viewBox="0 0 1318.000000 858.000000"
 preserveAspectRatio="xMidYMid meet">

<g transform="translate(0.000000,858.000000) scale(0.100000,-0.100000)"
fill="#000000" stroke="none">
<path d="M6490 6874 c-596 -26 -1047 -142 -1216 -312 -26 -26 -57 -69 -70 -97
-23 -49 -24 -56 -24 -352 l0 -301 30 -67 c25 -55 64 -247 240 -1168 119 -622
219 -1120 230 -1144 81 -184 289 -305 625 -364 185 -33 530 -33 719 -1 328 56
557 189 631 365 8 20 112 533 230 1139 162 833 222 1122 245 1181 l30 78 0
253 c0 249 -9 345 -36 397 -7 15 -35 49 -61 76 -142 146 -493 255 -953 298
-161 15 -490 25 -620 19z m590 -209 c365 -38 602 -95 765 -183 117 -64 115
-57 115 -371 0 -146 -4 -271 -8 -278 -6 -9 -18 -8 -52 5 -33 12 -77 17 -160
17 -105 0 -120 -2 -175 -28 -76 -35 -138 -96 -176 -170 l-30 -58 -50 45 c-64
57 -151 87 -259 88 -132 0 -249 -48 -333 -137 l-50 -52 -56 57 c-101 103 -226
144 -385 128 -83 -8 -181 -53 -224 -103 l-31 -34 -11 33 c-19 58 -87 142 -141
175 -99 61 -244 78 -371 42 -57 -15 -68 -16 -72 -4 -11 29 -6 534 5 555 47 88
279 182 576 233 141 24 388 52 533 59 126 6 447 -5 590 -19z m-1355 -924 c126
-56 173 -149 205 -411 11 -85 22 -167 25 -182 4 -25 2 -27 -43 -33 -88 -12
-199 -36 -277 -60 -54 -16 -77 -20 -80 -12 -14 44 -127 688 -122 693 4 4 28
13 54 20 67 19 177 12 238 -15z m2153 6 c31 -10 36 -16 34 -37 -7 -47 -131
-672 -135 -676 -2 -2 -29 5 -61 17 -57 20 -196 50 -288 63 -41 6 -48 11 -48
29 0 63 42 341 60 397 38 117 106 188 207 216 54 15 171 11 231 -9z m-1442
-136 c60 -27 140 -102 165 -156 15 -32 19 -64 19 -166 l0 -126 -187 -7 c-104
-4 -231 -11 -283 -15 -52 -5 -96 -8 -97 -7 -1 1 -12 76 -24 166 -20 156 -21
165 -4 196 30 56 99 116 152 130 69 20 197 12 259 -15z m711 16 c64 -17 123
-63 153 -121 l24 -44 -21 -161 c-11 -89 -22 -163 -24 -165 -2 -1 -47 1 -99 5
-52 4 -180 11 -283 15 l-189 7 4 136 c3 126 5 139 29 176 87 135 245 194 406
152z"/>
<path d="M5664 6456 c-137 -43 -194 -130 -124 -189 114 -97 544 -157 1123
-157 451 0 811 36 1025 102 125 38 169 116 102 178 -37 35 -127 70 -196 77
-46 5 -53 3 -64 -16 -18 -35 -4 -59 43 -71 77 -19 112 -30 127 -40 21 -14 3
-24 -92 -50 -392 -106 -1336 -116 -1807 -20 -113 23 -173 42 -179 58 -3 10 54
31 138 50 41 10 62 50 40 76 -15 19 -78 20 -136 2z"/>
<path d="M3398 2605 c-164 -33 -309 -148 -386 -306 -23 -46 -48 -112 -56 -146
l-14 -63 33 0 33 0 4 -102 c5 -121 30 -183 99 -242 68 -58 137 -79 254 -79
110 0 190 17 291 63 l61 28 27 113 c14 63 26 120 26 127 0 26 -69 11 -162 -34
-105 -50 -185 -65 -228 -42 -37 20 -70 75 -70 119 0 38 -1 39 -36 39 l-37 0 6
39 c14 105 108 230 190 252 65 17 119 4 186 -47 49 -37 66 -44 104 -44 l45 0
26 113 c15 61 29 119 31 128 8 23 -88 68 -181 84 -96 17 -158 17 -246 0z"/>
<path d="M4308 2610 c-245 -44 -410 -220 -472 -502 -5 -24 -3 -27 24 -30 l31
-3 2 -95 c4 -109 23 -163 81 -228 56 -61 121 -85 247 -90 165 -6 255 20 374
111 71 54 124 122 171 220 l34 72 -31 3 c-29 3 -31 5 -25 35 32 159 28 255
-14 342 -30 62 -110 131 -173 150 -64 19 -186 27 -249 15z m95 -240 c37 -29
52 -101 38 -188 -6 -39 -14 -77 -17 -86 -5 -13 1 -16 25 -16 37 0 38 -7 11
-61 -30 -58 -86 -116 -124 -129 -69 -23 -114 21 -123 120 -6 59 -6 60 -36 60
-29 0 -29 1 -23 38 23 149 119 282 202 282 12 0 33 -9 47 -20z"/>
<path d="M5345 2613 c-240 -32 -443 -237 -489 -495 -7 -37 -6 -38 22 -38 l30
0 4 -97 c7 -154 60 -245 172 -294 61 -27 232 -38 316 -20 154 33 303 156 378
311 l42 85 -31 5 c-34 6 -34 3 -19 75 17 82 15 196 -5 260 -48 153 -215 235
-420 208z m66 -233 c55 -30 69 -135 34 -272 -7 -26 -5 -28 25 -28 28 0 31 -2
24 -22 -21 -71 -88 -151 -139 -168 -69 -23 -125 37 -125 133 0 46 -1 47 -30
47 -26 0 -30 4 -30 28 0 15 11 57 24 94 50 142 146 225 217 188z"/>
<path d="M9935 2605 c-183 -40 -299 -149 -324 -307 -17 -102 22 -198 80 -198
16 0 49 -10 72 -21 23 -12 84 -35 135 -51 87 -27 132 -54 132 -79 0 -21 -58
-68 -94 -74 -84 -16 -206 32 -235 92 -15 30 -20 33 -63 33 l-46 0 -21 -91
c-35 -149 -36 -165 -15 -174 112 -45 166 -57 274 -62 70 -3 137 -1 171 6 190
40 344 194 357 358 l5 63 -32 0 c-23 0 -34 6 -40 23 -24 61 -88 101 -225 141
-49 14 -100 33 -113 41 -31 21 -27 51 10 79 63 46 228 12 266 -56 14 -26 21
-28 61 -26 l44 3 28 120 c15 66 24 123 19 128 -14 14 -117 46 -182 56 -84 14
-190 13 -264 -4z"/>
<path d="M6844 2583 c-3 -16 -15 -62 -25 -105 -10 -42 -19 -81 -19 -87 0 -7
41 -11 120 -11 74 0 120 -4 120 -10 0 -6 -11 -59 -25 -118 -14 -59 -27 -117
-30 -129 -5 -19 -1 -23 20 -23 15 0 25 -6 25 -15 0 -11 -39 -188 -85 -382 l-5
-23 155 0 c85 0 155 1 155 3 0 2 20 94 45 205 25 111 45 204 45 207 0 3 -11 5
-25 5 -14 0 -25 3 -25 6 0 4 40 186 55 252 5 21 9 22 129 22 l123 0 21 98 c12
53 22 105 22 115 0 16 -25 17 -395 17 l-395 0 -6 -27z"/>
<path d="M5995 2588 c-4 -13 -115 -497 -115 -504 0 -2 14 -4 30 -4 26 0 30 -3
25 -22 -3 -13 -23 -101 -45 -196 -22 -95 -40 -175 -40 -177 0 -3 69 -5 153 -5
l153 0 29 130 c15 72 31 133 35 135 4 3 32 -55 62 -128 l55 -132 181 -3 c174
-2 181 -2 174 16 -4 10 -43 100 -87 200 l-80 182 -33 0 c-29 0 -35 5 -53 47
l-20 47 153 155 c84 86 178 182 208 214 l54 57 -175 0 -176 0 -114 -125 c-63
-69 -115 -121 -117 -117 -1 5 9 57 23 116 14 59 25 112 25 117 0 15 -300 11
-305 -3z"/>
<path d="M7711 2348 l-140 -253 30 -3 c38 -4 42 6 -82 -214 -54 -97 -99 -179
-99 -182 0 -4 69 -5 153 -4 l152 3 43 83 43 82 88 0 88 0 7 -46 c3 -26 6 -64
6 -85 l0 -39 160 0 160 0 -5 28 c-5 25 -35 335 -35 354 0 4 -15 8 -34 8 -40 0
-36 -16 -61 255 -8 88 -17 184 -21 213 l-5 52 -154 0 -153 0 -141 -252z m239
-258 c17 0 30 -5 30 -11 0 -8 -21 -10 -72 -4 -40 3 -74 8 -75 9 -3 3 40 113
66 166 l16 35 3 -97 3 -98 29 0z"/>
<path d="M8525 2588 c-6 -18 -115 -490 -115 -500 0 -4 14 -8 31 -8 24 0 29 -4
25 -17 -7 -24 -86 -370 -86 -377 0 -3 69 -6 153 -6 l153 0 46 198 45 197 -29
3 c-15 2 -28 8 -28 13 0 6 25 118 55 249 30 131 55 243 55 249 0 17 -299 15
-305 -1z"/>
<path d="M8973 2573 c-3 -16 -30 -129 -58 -253 l-52 -225 26 -5 c31 -7 32 10
-20 -213 -21 -92 -39 -172 -39 -177 0 -7 114 -9 322 -8 l322 3 23 95 c34 144
50 130 -146 130 l-169 0 19 73 c23 91 24 87 -6 87 -14 0 -25 6 -25 13 0 7 25
118 55 247 30 129 55 241 55 248 0 9 -37 12 -150 12 l-150 0 -7 -27z"/>
</g>
</svg>
